<svg width="1920" height="1525" viewBox="0 0 1920 1525" fill="none" xmlns="http://www.w3.org/2000/svg">
<g clip-path="url(#clip0)">
<rect width="1920" height="1525" fill="#F8FFFF"/>
<path fill-rule="evenodd" clip-rule="evenodd" d="M244.937 -293.68C294.352 -265.16 297.172 -199.226 316.939 -147.511C332.811 -105.985 355.328 -65.0808 348.676 -22.2745C342.205 19.3747 304.353 45.4649 281.477 80.7072C251.651 126.657 237.348 175.295 185.5 197C132.129 219.343 77.9458 210.768 22.0885 189.294C-37.595 166.35 -105.491 143.458 -135.398 88.5403C-165.04 34.1089 -151.031 -32.1147 -128.585 -87.3878C-109.675 -133.952 -58.9413 -155.659 -22.1068 -190.433C12.3276 -222.941 34.8893 -266.848 79.974 -284.279C131.683 -304.271 195.371 -322.288 244.937 -293.68Z" fill="#8CFAFE"/>
<path fill-rule="evenodd" clip-rule="evenodd" d="M1759.48 665.405C1864.82 657.163 1989.45 677.335 2060.37 740.868C2130.29 803.494 2088.35 894.661 2104.4 974.377C2118.52 1044.48 2183.94 1115.75 2148.67 1179.31C2113.41 1242.84 1998.16 1246.47 1929.1 1290.32C1837.41 1348.53 1801.04 1466.15 1680.12 1476.79C1559.74 1487.39 1440.62 1414.41 1361.62 1340.28C1288.73 1271.88 1279.6 1180.75 1273.14 1094.88C1267.7 1022.54 1278.69 949.687 1327.73 889.88C1372.34 835.487 1459.9 818.53 1529.37 782.413C1607.44 741.824 1663.65 672.902 1759.48 665.405Z" fill="#8CFAFE"/>
<path d="M1608.83 1236.01C1606.89 1224.84 1596.67 1217.16 1585.58 1218.15L1585.03 1214.96C1584.88 1214.07 1584.08 1213.43 1583.18 1213.46C1582.83 1213.48 1580.14 1213.58 1576.16 1213.78C1575.93 1213.73 1575.68 1213.71 1575.43 1213.76C1575.33 1213.78 1575.23 1213.8 1575.14 1213.83C1565.75 1214.33 1550.31 1215.34 1540.84 1216.98C1531.37 1218.63 1516.5 1222.89 1507.49 1225.6C1507.39 1225.6 1507.3 1225.6 1507.2 1225.62C1506.95 1225.66 1506.72 1225.76 1506.52 1225.89C1502.7 1227.04 1500.13 1227.85 1499.8 1227.96C1498.94 1228.23 1498.41 1229.1 1498.56 1230L1499.12 1233.18C1488.34 1235.99 1481.32 1246.67 1483.26 1257.84C1485.2 1269 1495.42 1276.68 1506.51 1275.69L1507.06 1278.87C1507.18 1279.59 1507.72 1280.16 1508.43 1280.33C1508.77 1280.41 1511.49 1281.05 1515.57 1281.81C1515.97 1282.14 1516.49 1282.29 1517.03 1282.2C1517.13 1282.18 1517.22 1282.16 1517.3 1282.13C1526.71 1283.81 1541.66 1285.78 1552.48 1283.9C1569.07 1281.01 1591.77 1266.3 1592.73 1265.67C1593.34 1265.28 1593.65 1264.56 1593.53 1263.84L1592.98 1260.66C1603.75 1257.85 1610.77 1247.17 1608.83 1236.01ZM1578.11 1239.75C1573 1241.39 1556.02 1246.72 1546.31 1248.41C1536.59 1250.1 1518.8 1250.81 1513.45 1250.99L1511.9 1242.11L1576.56 1230.86L1578.11 1239.75ZM1514.08 1254.6C1520.04 1254.4 1537.15 1253.68 1546.93 1251.98C1556.7 1250.28 1573.05 1245.18 1578.73 1243.36L1580.26 1252.17C1575.61 1254.39 1558.76 1262.21 1549 1263.9C1539.25 1265.6 1520.74 1263.93 1515.61 1263.41L1514.08 1254.6V1254.6ZM1574.24 1217.52L1575.94 1227.29L1511.28 1238.53L1509.58 1228.76C1518.61 1226.07 1532.64 1222.09 1541.46 1220.56C1550.29 1219.02 1564.83 1218.04 1574.24 1217.52ZM1486.84 1257.21C1485.24 1248.02 1490.94 1239.22 1499.74 1236.76L1505.89 1272.11C1496.77 1272.77 1488.43 1266.41 1486.84 1257.21ZM1502.41 1230.94C1503.3 1230.67 1504.56 1230.28 1506.08 1229.81L1512.27 1265.41C1512.27 1265.41 1512.27 1265.41 1512.27 1265.41L1514.44 1277.89C1512.7 1277.55 1511.32 1277.26 1510.43 1277.06L1502.41 1230.94ZM1589.75 1263.27C1585.16 1266.15 1565.81 1277.9 1551.85 1280.32C1541.79 1282.07 1527.45 1280.21 1518.25 1278.59L1516.25 1267.12C1522.6 1267.74 1539.87 1269.17 1549.62 1267.48C1559.37 1265.78 1575.14 1258.61 1580.91 1255.88L1581.64 1260.07C1581.81 1261.05 1582.75 1261.72 1583.74 1261.54C1584.72 1261.37 1585.38 1260.43 1585.21 1259.45L1584.08 1252.93C1584.08 1252.93 1584.08 1252.93 1584.08 1252.92L1577.89 1217.33C1579.48 1217.25 1580.8 1217.19 1581.73 1217.15L1589.75 1263.27L1589.75 1263.27ZM1592.35 1257.08L1586.21 1221.73C1595.32 1221.07 1603.66 1227.44 1605.26 1236.63C1606.85 1245.82 1601.16 1254.62 1592.35 1257.08Z" fill="white"/>
<g clip-path="url(#clip1)">
<path d="M1841.73 1142.67C1840.99 1142.47 1840.23 1142.44 1839.49 1142.59C1839.26 1142.63 1839.03 1142.59 1838.86 1142.45L1837.94 1141.71C1837.68 1141.5 1837.6 1141.14 1837.74 1140.82C1838.01 1140.25 1838.22 1139.64 1838.39 1139.03C1838.55 1138.44 1839.21 1138.06 1839.77 1138.27C1840.98 1138.74 1842.34 1138.67 1843.51 1138.07C1845.62 1136.98 1846.55 1134.33 1845.59 1132.16C1844.85 1130.51 1843.21 1129.44 1841.41 1129.44C1840.74 1129.44 1840.1 1129.58 1839.49 1129.86C1839.29 1129.96 1839.07 1130.1 1838.82 1130.28C1838.25 1130.69 1837.48 1130.54 1837.13 1129.94C1836.75 1129.32 1836.3 1128.76 1835.85 1128.19C1835.43 1127.68 1835.36 1126.96 1835.67 1126.37L1836.63 1124.49C1836.91 1123.96 1837.4 1123.6 1837.92 1123.55C1838.41 1123.5 1838.88 1123.37 1839.35 1123.16C1840.81 1122.49 1841.84 1121.11 1842.03 1119.57C1842.19 1118.26 1841.79 1116.95 1840.92 1115.97C1839.9 1114.82 1838.34 1114.25 1836.8 1114.48C1834.87 1114.77 1833.3 1116.32 1832.99 1118.24C1832.85 1119.13 1832.96 1120.03 1833.31 1120.83C1833.55 1121.37 1833.55 1121.93 1833.31 1122.39L1832.56 1123.85C1832.18 1124.59 1831.29 1124.99 1830.53 1124.75C1829.84 1124.53 1828.69 1124.39 1827.84 1124.3C1827.61 1124.28 1827.41 1124.11 1827.36 1123.88L1826.61 1120.74C1826.57 1120.57 1826.62 1120.38 1826.76 1120.23C1827.54 1119.32 1827.86 1118.12 1827.63 1116.93C1827.34 1115.41 1826.13 1114.18 1824.62 1113.86C1824.34 1113.81 1824.07 1113.78 1823.79 1113.78C1821.63 1113.78 1819.87 1115.53 1819.87 1117.69C1819.87 1119.32 1820.9 1120.79 1822.43 1121.35C1822.64 1121.43 1822.79 1121.58 1822.83 1121.76L1823.43 1124.28C1823.49 1124.55 1823.33 1124.83 1823.06 1124.93C1822.18 1125.25 1821.34 1125.67 1820.56 1126.18C1820.28 1126.37 1819.86 1126.37 1819.61 1126.17C1819.27 1125.89 1819.29 1125.48 1819.41 1125.21C1819.89 1124.07 1820 1122.81 1819.72 1121.58C1819.22 1119.35 1817.38 1117.57 1815.13 1117.15C1813 1116.75 1810.83 1117.53 1809.47 1119.17C1808.35 1120.52 1807.9 1122.31 1808.24 1124.06C1808.68 1126.41 1810.56 1128.27 1812.91 1128.69C1813.9 1128.87 1814.91 1128.8 1815.84 1128.5C1816.12 1128.4 1816.45 1128.51 1816.65 1128.76L1816.91 1129.08C1817.11 1129.34 1817.13 1129.68 1816.97 1129.97C1816.13 1131.37 1815.6 1132.9 1815.4 1134.52C1815.36 1134.87 1815.09 1135.13 1814.75 1135.16L1813.46 1135.28C1813.27 1135.28 1813.07 1135.19 1812.9 1135.02C1812.28 1134.42 1811.5 1134.08 1810.64 1134.02C1809.19 1133.93 1807.82 1134.72 1807.2 1136C1806.71 1136.99 1806.7 1138.12 1807.15 1139.1C1807.6 1140.08 1808.46 1140.8 1809.51 1141.07C1811 1141.46 1812.63 1140.8 1813.44 1139.5C1813.56 1139.31 1813.79 1139.18 1814.06 1139.16L1815.19 1139.06C1815.5 1139.06 1815.77 1139.26 1815.87 1139.57C1816.33 1140.99 1817.05 1142.3 1818.01 1143.46C1818.12 1143.59 1818.11 1143.78 1817.99 1143.91C1817.86 1144.06 1817.7 1144.04 1817.57 1144C1817.03 1143.83 1816.46 1143.76 1815.87 1143.82C1813.93 1144 1812.34 1145.54 1812.08 1147.46C1811.92 1148.69 1812.29 1149.92 1813.09 1150.84C1814.08 1151.97 1815.62 1152.49 1817.12 1152.21C1818.63 1151.92 1819.89 1150.77 1820.34 1149.28C1820.55 1148.6 1820.58 1147.91 1820.45 1147.23C1820.43 1147.13 1820.46 1147.03 1820.53 1146.94L1821.05 1146.38C1821.15 1146.26 1821.33 1146.22 1821.46 1146.29C1821.8 1146.48 1822.15 1146.65 1822.51 1146.8C1822.94 1146.98 1823.2 1147.45 1823.16 1147.97C1823.11 1148.42 1823.14 1148.88 1823.24 1149.33C1823.64 1151.24 1825.28 1152.71 1827.22 1152.91C1827.39 1152.93 1827.55 1152.94 1827.71 1152.94C1830.23 1152.94 1832.28 1150.89 1832.28 1148.37C1832.28 1148.08 1832.25 1147.8 1832.19 1147.51C1832.09 1146.98 1832.3 1146.48 1832.73 1146.24C1833.41 1145.87 1834.05 1145.42 1834.64 1144.93C1834.85 1144.75 1835.1 1144.67 1835.29 1144.71C1835.59 1144.79 1835.73 1144.96 1835.8 1145.09C1835.9 1145.28 1835.91 1145.5 1835.84 1145.71C1835.54 1146.51 1835.47 1147.38 1835.61 1148.23C1835.96 1150.31 1837.66 1151.96 1839.75 1152.24C1839.98 1152.27 1840.21 1152.29 1840.43 1152.29C1841.81 1152.29 1843.13 1151.7 1844.06 1150.68C1845 1149.64 1845.44 1148.3 1845.31 1146.9C1845.11 1144.91 1843.67 1143.21 1841.73 1142.67ZM1839.45 1133.36C1839.81 1133.36 1840.11 1133.65 1840.11 1134.01C1840.11 1134.37 1839.81 1134.66 1839.45 1134.66C1839.09 1134.66 1838.8 1134.37 1838.8 1134.01C1838.8 1133.65 1839.09 1133.36 1839.45 1133.36ZM1832.28 1127.48C1832.64 1127.48 1832.93 1127.78 1832.93 1128.14C1832.93 1128.5 1832.64 1128.79 1832.28 1128.79C1831.91 1128.79 1831.62 1128.5 1831.62 1128.14C1831.62 1127.78 1831.91 1127.48 1832.28 1127.48ZM1829.01 1130.09C1829.37 1130.09 1829.66 1130.39 1829.66 1130.75C1829.66 1131.11 1829.37 1131.4 1829.01 1131.4C1828.65 1131.4 1828.36 1131.11 1828.36 1130.75C1828.36 1130.39 1828.65 1130.09 1829.01 1130.09ZM1821.83 1139.23C1821.47 1139.23 1821.18 1138.94 1821.18 1138.58C1821.18 1138.22 1821.47 1137.93 1821.83 1137.93C1822.19 1137.93 1822.49 1138.22 1822.49 1138.58C1822.49 1138.94 1822.19 1139.23 1821.83 1139.23ZM1822.49 1135.32C1821.05 1135.32 1819.87 1134.15 1819.87 1132.71C1819.87 1131.27 1821.05 1130.09 1822.49 1130.09C1823.92 1130.09 1825.1 1131.27 1825.1 1132.71C1825.1 1134.15 1823.92 1135.32 1822.49 1135.32ZM1827.71 1145.76C1825.55 1145.76 1823.79 1144 1823.79 1141.84C1823.79 1139.68 1825.55 1137.93 1827.71 1137.93C1829.87 1137.93 1831.62 1139.68 1831.62 1141.84C1831.62 1144 1829.87 1145.76 1827.71 1145.76ZM1834.89 1141.19C1834.53 1141.19 1834.23 1140.9 1834.23 1140.54C1834.23 1140.18 1834.53 1139.88 1834.89 1139.88C1835.25 1139.88 1835.54 1140.18 1835.54 1140.54C1835.54 1140.9 1835.25 1141.19 1834.89 1141.19ZM1833.58 1137.27C1832.14 1137.27 1830.97 1136.1 1830.97 1134.66C1830.97 1133.22 1832.14 1132.05 1833.58 1132.05C1835.02 1132.05 1836.19 1133.22 1836.19 1134.66C1836.19 1136.1 1835.02 1137.27 1833.58 1137.27Z" fill="white"/>
</g>
<path d="M1843.07 1115.93C1831.16 1104.02 1811.84 1104.02 1799.93 1115.93C1788.02 1127.84 1788.02 1147.16 1799.93 1159.07C1811.84 1170.98 1831.16 1170.98 1843.07 1159.07C1854.98 1147.16 1854.98 1127.84 1843.07 1115.93ZM1803.51 1155.49C1794.19 1146.17 1793.62 1131.43 1801.76 1121.44L1837.55 1157.22C1827.57 1165.38 1812.83 1164.8 1803.51 1155.49ZM1841.22 1153.56L1805.44 1117.78C1815.43 1109.63 1830.17 1110.2 1839.49 1119.52C1848.81 1128.84 1849.38 1143.57 1841.22 1153.56Z" fill="#FFFAFA"/>
<g clip-path="url(#clip2)">
<path d="M1533.15 955.048C1532.37 954.787 1531.54 955.218 1531.28 956C1531.12 956.484 1531.22 956.994 1531.51 957.375C1531.32 957.84 1531.37 958.389 1531.68 958.825C1532.02 959.287 1532.57 959.498 1533.1 959.423C1533.34 959.39 1533.57 959.3 1533.77 959.152C1534.93 958.309 1534.98 957.377 1534.9 956.897C1534.75 955.914 1533.9 955.297 1533.15 955.048Z" fill="white"/>
<path d="M1523.92 910.252C1524.54 910.627 1524.7 910.876 1524.69 910.838C1524.77 911.419 1524.27 912.406 1523.87 912.953L1522.24 915.38C1521.78 916.064 1521.96 916.992 1522.65 917.453C1522.96 917.667 1523.34 917.743 1523.69 917.693C1524.09 917.635 1524.47 917.412 1524.72 917.047L1526.3 914.684C1526.47 914.461 1527.94 912.442 1527.65 910.409C1527.5 909.382 1526.79 908.494 1525.46 907.695C1524.76 907.269 1523.84 907.496 1523.41 908.201C1522.99 908.907 1523.21 909.826 1523.92 910.252Z" fill="white"/>
<path d="M1515.52 948.445C1513.67 946.955 1511.37 944.532 1510.93 941.449C1510.67 939.608 1511.09 937.596 1512.18 935.468C1512.55 934.733 1512.26 933.835 1511.53 933.459C1510.79 933.084 1509.89 933.374 1509.51 934.11C1508.14 936.797 1507.63 939.406 1507.98 941.869C1508.55 945.918 1511.38 948.946 1513.65 950.773C1513.99 951.042 1514.41 951.143 1514.8 951.087C1515.16 951.036 1515.51 950.852 1515.75 950.544C1516.27 949.902 1516.17 948.961 1515.52 948.445Z" fill="white"/>
<path d="M1495.5 921.087C1491.31 923.176 1488.75 923.263 1486.68 921.383L1484.92 919.29L1491.12 917.879C1491.92 917.696 1492.42 916.895 1492.24 916.091C1492.06 915.287 1491.26 914.78 1490.45 914.966L1482.76 916.718L1480.23 913.721L1490.2 910.423C1490.98 910.164 1491.41 909.319 1491.15 908.535C1490.89 907.752 1490.05 907.324 1489.26 907.587L1478.16 911.26L1477.71 910.725C1476.51 909.163 1476.09 908.555 1475.89 907.198C1475.82 906.659 1476.51 905.903 1477.51 905.419L1509.12 894.911C1509.9 894.65 1510.33 893.804 1510.07 893.022C1509.81 892.24 1508.96 891.818 1508.18 892.076L1476.48 902.612C1476.43 902.63 1476.38 902.651 1476.33 902.674C1473.99 903.756 1472.66 905.695 1472.94 907.618C1473.24 909.719 1474.01 910.805 1475.38 912.597L1484.46 923.378C1484.5 923.424 1484.54 923.468 1484.58 923.507C1486.74 925.527 1489.13 925.952 1491.44 925.623C1493.34 925.354 1495.19 924.578 1496.83 923.762C1497.57 923.393 1497.87 922.496 1497.5 921.758C1497.13 921.021 1496.24 920.716 1495.5 921.087Z" fill="white"/>
<path d="M1529.19 895.261C1528.02 894.869 1526.14 894.732 1524.03 894.886C1523.23 894.955 1522.59 895.661 1522.65 896.484C1522.71 897.307 1523.42 897.925 1524.25 897.866C1526.12 897.729 1527.61 897.882 1528.24 898.096C1530.86 898.969 1535.55 902.282 1536.52 909.149C1537.46 915.73 1531.24 922.453 1531.18 922.521C1530.61 923.123 1530.64 924.068 1531.24 924.631C1531.59 924.955 1532.04 925.083 1532.48 925.022C1532.8 924.976 1533.11 924.823 1533.35 924.567C1533.65 924.252 1540.62 916.741 1539.48 908.729C1538.3 900.418 1532.46 896.354 1529.19 895.261Z" fill="white"/>
<path d="M1557.04 891.21C1556.98 891.203 1556.93 891.197 1556.87 891.195L1523.5 889.9C1522.67 889.873 1521.98 890.512 1521.95 891.335C1521.91 892.159 1522.56 892.853 1523.38 892.886L1556.67 894.176C1557.76 894.363 1558.64 894.897 1558.71 895.435C1558.91 896.793 1558.67 897.495 1557.98 899.266L1557.67 899.968L1545.99 899.53C1545.16 899.497 1544.47 900.143 1544.44 900.966C1544.41 901.792 1545.05 902.485 1545.87 902.516L1556.36 902.909L1554.78 906.49L1546.9 906.949C1546.07 906.995 1545.44 907.705 1545.49 908.528C1545.54 909.351 1546.25 909.981 1547.07 909.932L1553.41 909.56L1552.3 912.062C1550.84 914.444 1548.36 915.075 1543.76 914.233C1542.94 914.083 1542.17 914.625 1542.02 915.435C1541.87 916.246 1542.41 917.024 1543.22 917.173C1545.02 917.501 1547.01 917.731 1548.91 917.462C1551.22 917.133 1553.4 916.061 1554.91 913.517C1554.94 913.468 1554.97 913.414 1555 913.359L1560.74 900.415C1561.53 898.374 1561.97 897.117 1561.67 895.015C1561.4 893.093 1559.58 891.601 1557.04 891.21Z" fill="white"/>
<path d="M1518.77 937.811C1517.97 937.61 1517.16 938.097 1516.96 938.897C1516.81 939.499 1516.77 940.075 1516.85 940.609C1516.97 941.44 1517.38 942.279 1518.07 943.108C1518.41 943.521 1518.93 943.702 1519.43 943.631C1519.69 943.594 1519.95 943.484 1520.17 943.301C1520.8 942.772 1520.89 941.83 1520.36 941.196C1519.93 940.678 1519.83 940.342 1519.81 940.189C1519.79 940.041 1519.81 939.845 1519.86 939.621C1520.06 938.822 1519.57 938.011 1518.77 937.811Z" fill="white"/>
<path d="M1513.33 904.898C1514.15 904.782 1514.72 904.026 1514.6 903.209C1514.49 902.393 1513.73 901.824 1512.91 901.941L1512.9 901.943C1512.08 902.059 1511.52 902.814 1511.64 903.631C1511.75 904.447 1512.52 905.014 1513.33 904.898Z" fill="white"/>
<path d="M1521.43 919.72L1519.72 907.723C1521.21 906.56 1522.34 904.893 1521.95 902.165C1521.63 899.923 1520.33 898.305 1518.26 897.387L1517.48 891.961C1519.12 891.103 1520.12 889.302 1519.85 887.376C1519.5 884.93 1517.23 883.222 1514.78 883.57C1512.34 883.917 1510.63 886.19 1510.98 888.636C1511.25 890.562 1512.72 892.011 1514.53 892.379L1515.13 896.597C1513.78 896.456 1512.27 896.496 1510.6 896.733C1508.01 897.101 1505.5 897.916 1504.2 898.809C1501.37 900.769 1496.89 906.3 1498.07 914.609C1499.21 922.622 1507.71 927.732 1508.07 927.946L1520.63 935.364L1522.14 945.955L1518.82 951.333C1518.7 951.491 1515.91 955.263 1516.62 960.255C1517.38 965.605 1521.38 966.942 1524.59 968.016L1524.9 968.119C1525.04 968.163 1525.17 968.208 1525.3 968.252L1525.7 971.036C1525.81 971.852 1526.57 972.421 1527.39 972.305C1528.2 972.189 1528.77 971.432 1528.66 970.616L1528.45 969.184C1529.52 969.427 1530.53 969.55 1531.41 969.425C1532.88 969.216 1533.62 968.401 1533.98 967.754C1535.45 965.116 1533.03 962.609 1531.28 961.492L1526.25 958.725L1534.01 948.379C1534.19 948.179 1538.37 943.436 1537.56 937.668C1536.64 931.214 1531.29 927.132 1531.07 926.962L1521.43 919.72ZM1515.2 886.527C1516.02 886.412 1516.78 886.981 1516.89 887.796C1517.01 888.611 1516.44 889.369 1515.62 889.485C1514.81 889.601 1514.05 889.031 1513.94 888.216C1513.82 887.401 1514.39 886.643 1515.2 886.527ZM1531.71 946.485L1522.82 958.307C1522.56 958.653 1522.47 959.096 1522.56 959.519C1522.65 959.942 1522.92 960.305 1523.3 960.514L1529.76 964.058C1530.36 964.443 1531.72 965.676 1531.37 966.302C1531.35 966.341 1531.3 966.423 1530.99 966.467C1529.86 966.628 1527.73 965.915 1525.85 965.286L1525.54 965.181C1522.16 964.051 1520.06 963.187 1519.58 959.834C1519.05 956.099 1521.19 953.152 1521.28 953.015L1527.34 943.203C1527.51 942.98 1528.97 940.962 1528.68 938.928C1528.39 936.895 1526.42 935.364 1526.2 935.196C1526.16 935.163 1526.11 935.132 1526.06 935.104L1509.59 925.375C1509.52 925.33 1501.96 920.769 1501.03 914.19C1500.05 907.323 1503.63 902.836 1505.9 901.269C1506.67 900.735 1508.68 900.023 1511.02 899.69C1512.76 899.443 1518.47 898.922 1518.99 902.585C1519.29 904.643 1518.22 905.395 1515.52 906.738C1514.7 907.151 1513.84 907.578 1513.07 908.111C1512.25 908.681 1509.59 910.709 1509.9 912.929C1510.19 914.963 1512.16 916.493 1512.38 916.661L1519.07 921.682C1519.12 921.732 1519.18 921.776 1519.25 921.818L1529.27 929.35C1529.32 929.384 1533.85 932.845 1534.6 938.088C1535.22 942.46 1531.82 946.348 1531.71 946.485ZM1524.59 941.982L1523.93 937.31L1524.46 937.628C1524.94 938.017 1525.64 938.792 1525.72 939.348C1525.81 939.928 1525.31 940.924 1524.87 941.521L1524.59 941.982ZM1516.94 909.371L1518.05 917.182L1514.18 914.277C1513.7 913.907 1512.94 913.089 1512.86 912.575C1512.92 912.191 1513.87 911.197 1514.77 910.571C1515.37 910.155 1516.09 909.795 1516.86 909.413C1516.88 909.398 1516.91 909.384 1516.94 909.371Z" fill="white"/>
</g>
<path d="M1834.33 825.559C1828.17 823.405 1821.47 826.251 1818.63 831.946L1801.9 826.09L1805.14 816.83C1806.85 816.988 1808.56 816.468 1809.92 815.324L1841.01 789.124C1842.83 787.596 1843.66 785.288 1843.23 782.953C1842.8 780.617 1841.21 778.754 1838.97 777.97L1835.53 776.768C1835.3 774.688 1833.93 772.814 1831.83 772.078C1829.42 771.234 1822.87 771.023 1821.66 774.46C1820.46 777.896 1825.72 781.817 1828.13 782.661C1830.79 783.591 1833.66 782.379 1834.93 779.95L1837.91 780.993C1839.05 781.392 1839.86 782.342 1840.08 783.531C1840.3 784.719 1839.87 785.894 1838.95 786.673L1807.86 812.874C1806.95 813.636 1805.74 813.857 1804.62 813.466C1803.5 813.074 1802.69 812.147 1802.46 810.967L1793.93 770.919C1793.69 769.734 1794.1 768.551 1795.01 767.759C1795.92 766.965 1797.15 766.729 1798.29 767.128L1801.82 768.364C1801.3 771.053 1802.79 773.795 1805.45 774.725C1807.86 775.57 1814.41 775.78 1815.62 772.344C1816.82 768.907 1811.57 764.987 1809.15 764.142C1807.05 763.406 1804.81 764.017 1803.33 765.5L1799.34 764.104C1797.1 763.319 1794.69 763.783 1792.9 765.342C1791.11 766.901 1790.32 769.221 1790.8 771.567L1799.32 811.616C1799.67 813.359 1800.68 814.83 1802.12 815.772L1798.88 825.032L1785.27 820.27C1776.1 817.062 1766.03 821.912 1762.82 831.081C1759.61 840.251 1764.46 850.323 1773.63 853.531C1782.8 856.74 1792.87 851.89 1796.08 842.72L1800.84 829.114L1817.58 834.97C1816.24 841.188 1819.71 847.594 1825.86 849.749C1832.53 852.082 1839.86 848.555 1842.19 841.886C1844.53 835.217 1841 827.893 1834.33 825.559ZM1829.19 779.637C1827.32 778.984 1824.63 776.366 1824.69 775.519C1825.17 774.82 1828.91 774.449 1830.77 775.102C1832.02 775.539 1832.68 776.913 1832.25 778.163C1831.81 779.413 1830.44 780.075 1829.19 779.637ZM1808.1 767.166C1809.96 767.819 1812.65 770.438 1812.59 771.284C1812.11 771.983 1808.37 772.354 1806.51 771.702C1805.26 771.264 1804.6 769.89 1805.03 768.64C1805.47 767.39 1806.84 766.728 1808.1 767.166ZM1793.06 841.662C1790.43 849.166 1782.19 853.133 1774.69 850.508C1767.19 847.882 1763.22 839.643 1765.84 832.139C1768.47 824.636 1776.71 820.669 1784.21 823.294L1797.82 828.056L1793.06 841.662ZM1826.92 846.725C1821.92 844.974 1819.27 839.482 1821.03 834.479C1822.78 829.477 1828.27 826.832 1833.27 828.583C1838.27 830.333 1840.92 835.825 1839.17 840.828C1837.42 845.831 1831.92 848.476 1826.92 846.725Z" fill="white"/>
<path d="M1832.21 831.606C1828.88 830.439 1825.22 832.202 1824.05 835.538C1822.88 838.873 1824.65 842.534 1827.98 843.701C1831.32 844.868 1834.98 843.105 1836.14 839.77C1837.31 836.435 1835.55 832.773 1832.21 831.606ZM1829.04 840.677C1827.37 840.094 1826.49 838.263 1827.07 836.596C1827.66 834.928 1829.49 834.047 1831.15 834.63C1832.82 835.214 1833.7 837.044 1833.12 838.712C1832.54 840.379 1830.71 841.261 1829.04 840.677Z" fill="white"/>
</g>
<defs>
<clipPath id="clip0">
<rect width="1920" height="1525" fill="white"/>
</clipPath>
<clipPath id="clip1">
<rect width="39.1605" height="39.1605" fill="white" transform="translate(1806.81 1113.78)"/>
</clipPath>
<clipPath id="clip2">
<rect width="89.6255" height="89.6255" fill="white" transform="translate(1470.42 889.871) rotate(-8.08328)"/>
</clipPath>
</defs>
</svg>
