<svg width="1920" height="1080" viewBox="0 0 1920 1080" fill="none" xmlns="http://www.w3.org/2000/svg">
<g clip-path="url(#clip0)">
<rect width="1920" height="1080" fill="white"/>
<path fill-rule="evenodd" clip-rule="evenodd" d="M1967.88 666.972C2109.19 705.849 2252.31 803.081 2291.9 947.543C2330.92 1089.94 2203.98 1224.95 2160.39 1369.53C2122.05 1496.67 2148.38 1651.6 2052.16 1742.7C1955.99 1833.75 1805.71 1781.98 1682.14 1822.32C1518.1 1875.88 1377 2058.98 1213.83 2016.38C1051.4 1973.98 957.789 1789.09 916.412 1622.42C878.23 1468.63 939.847 1308 1000.65 1157.71C1051.87 1031.12 1124.52 911.898 1235.33 834.161C1336.1 763.462 1461.7 778.475 1579.57 751.575C1712.02 721.344 1839.32 631.606 1967.88 666.972Z" fill="#AFFBF6"/>
<path fill-rule="evenodd" clip-rule="evenodd" d="M279.745 -357.555C336.666 -324.73 340.028 -249.044 362.869 -189.649C381.211 -141.955 407.197 -94.9644 399.618 -45.8418C392.244 1.95297 348.728 31.8328 322.464 72.2443C288.22 124.934 282.168 201.805 222.536 226.627C161.153 252.177 88.4576 221.17 24.1351 196.422C-44.5936 169.98 -122.774 143.583 -157.29 80.4936C-191.501 17.9627 -175.497 -58.0258 -149.762 -121.43C-128.083 -174.844 -69.7334 -199.671 -27.4036 -239.52C12.1679 -276.772 38.0553 -327.13 89.9108 -347.058C149.385 -369.913 222.65 -390.48 279.745 -357.555Z" fill="#8CFAFE"/>
</g>
<defs>
<clipPath id="clip0">
<rect width="1920" height="1080" fill="white"/>
</clipPath>
</defs>
</svg>
