<?xml version="1.0" encoding="iso-8859-1"?>
<!-- Generator: Adobe Illustrator 19.0.0, SVG Export Plug-In . SVG Version: 6.00 Build 0)  -->
<svg version="1.1" id="Capa_1" xmlns="http://www.w3.org/2000/svg" xmlns:xlink="http://www.w3.org/1999/xlink" x="0px" y="0px"
	 viewBox="0 0 400 400" style="enable-background:new 0 0 400 400;" xml:space="preserve">
<g id="XMLID_7_">
	<polygon id="XMLID_13_" style="fill:#CDCDD0;" points="50,100 199.999,100 199.999,70 20,70.001 20,300 50,300 	"/>
	<polygon id="XMLID_2161_" style="fill:#ACABB1;" points="350,300 380,300 380,70 200.001,70 200.001,100 350,100 	"/>
	<polygon id="XMLID_2162_" style="fill:#DEDDE0;" points="380,300 350,300 171.75,300 140,300 50,300 20,300 0,300 0,330 400,330 
		400,300 	"/>
	<path id="XMLID_2163_" style="fill:#64C37D;" d="M155,185c0-5.247,0.907-10.28,2.558-14.963L50,131.836V300h90l27.335-78.899
		C160.337,209.699,155,197.054,155,185z"/>
	<path id="XMLID_2164_" style="fill:#64C37D;" d="M242.495,200.204C233.037,230.631,200,260,200,260s-4.527-4.025-10.707-10.635
		L171.75,300H350v-61.614L242.495,200.204z"/>
	<path id="XMLID_2165_" style="fill:#99EFF2;" d="M167.335,221.101L140,300h31.75l17.543-50.635
		C182.695,242.31,174.214,232.309,167.335,221.101z"/>
	<path id="XMLID_2166_" style="fill:#78B9EB;" d="M178.308,145.571C184.742,142.023,192.134,140,200,140
		c18.868,0,35.015,11.618,41.701,28.086L350,206.551V100H200.001H200h-0.001H50L178.308,145.571z"/>
	<path id="XMLID_8_" style="fill:#FFDA44;" d="M245,185c0,5.01-0.925,10.121-2.505,15.204L350,238.386v-31.835l-108.299-38.465
		C243.822,173.31,245,179.016,245,185z"/>
	<path id="XMLID_2167_" style="fill:#FFDA44;" d="M178.308,145.571L50,100v31.836l107.558,38.201
		C161.251,159.561,168.706,150.864,178.308,145.571z"/>
	<path id="XMLID_2168_" style="fill:#FF5023;" d="M157.558,170.037C155.907,174.72,155,179.753,155,185
		c0,12.054,5.337,24.699,12.335,36.101c6.879,11.208,15.36,21.209,21.958,28.265C195.473,255.975,200,260,200,260v-60
		c-8.284,0-15-6.716-15-15s6.716-15,15-15v-30c-7.866,0-15.258,2.023-21.692,5.571C168.706,150.864,161.251,159.561,157.558,170.037
		z"/>
	<path id="XMLID_2169_" style="fill:#BF3C1A;" d="M200,170c8.284,0,15,6.716,15,15s-6.716,15-15,15v60
		c0,0,33.037-29.369,42.495-59.796C244.075,195.121,245,190.01,245,185c0-5.984-1.178-11.69-3.299-16.914
		C235.015,151.618,218.868,140,200,140V170z"/>
	<circle id="XMLID_2170_" style="fill:#FFFFFF;" cx="200" cy="185" r="15"/>
</g>
<g>
</g>
<g>
</g>
<g>
</g>
<g>
</g>
<g>
</g>
<g>
</g>
<g>
</g>
<g>
</g>
<g>
</g>
<g>
</g>
<g>
</g>
<g>
</g>
<g>
</g>
<g>
</g>
<g>
</g>
</svg>
