<?xml version="1.0" encoding="iso-8859-1"?>
<!-- Generator: Adobe Illustrator 19.0.0, SVG Export Plug-In . SVG Version: 6.00 Build 0)  -->
<svg version="1.1" id="Layer_1" xmlns="http://www.w3.org/2000/svg" xmlns:xlink="http://www.w3.org/1999/xlink" x="0px" y="0px"
	 viewBox="0 0 369.321 369.321" style="enable-background:new 0 0 369.321 369.321;" xml:space="preserve">
<g>
	<g>
		<circle style="fill:#005CB9;" cx="300.554" cy="79.232" r="68.767"/>
		<path style="fill:#61B4E4;" d="M369.206,83.175c0.074-1.305,0.114-2.619,0.114-3.943c0-1.097-0.026-2.188-0.078-3.272h-26.679
			c-0.411-9.443-2.435-18.716-5.97-27.5h25.47c-1.251-2.495-2.649-4.905-4.183-7.215h-24.59c-1.592-3.095-3.381-6.114-5.363-9.041
			c-5.613-8.279-12.936-15.937-20.328-21.383c-2.316-0.235-4.667-0.356-7.046-0.356s-4.729,0.121-7.045,0.356
			c-7.392,5.446-14.716,13.104-20.329,21.383c-1.982,2.927-3.771,5.946-5.363,9.041h-24.59c-1.533,2.31-2.931,4.72-4.183,7.215
			h25.47c-3.535,8.784-5.558,18.057-5.97,27.5h-26.679c-0.051,1.085-0.078,2.175-0.078,3.272c0,1.324,0.04,2.638,0.114,3.943h26.643
			c0.412,9.443,2.435,18.715,5.97,27.501h-25.132c1.287,2.498,2.724,4.907,4.295,7.215h24.14c1.592,3.095,3.381,6.115,5.363,9.04
			c5.347,7.887,12.247,15.207,19.277,20.592c2.657,0.311,5.356,0.477,8.097,0.477s5.44-0.166,8.097-0.477
			c7.032-5.385,13.931-12.705,19.277-20.592c1.982-2.925,3.772-5.945,5.363-9.04h24.141c1.571-2.308,3.007-4.717,4.295-7.215
			h-25.133c3.535-8.785,5.559-18.057,5.97-27.501C342.563,83.175,369.206,83.175,369.206,83.175z M296.946,141.858
			c-4.78-3.643-11.571-9.796-17.793-18.976c-1.114-1.643-2.158-3.306-3.136-4.991h20.929L296.946,141.858L296.946,141.858z
			 M296.946,110.676h-24.631c-3.92-8.71-6.112-17.909-6.551-27.501h31.182V110.676z M296.946,75.961h-31.182
			c0.438-9.592,2.631-18.791,6.551-27.5h24.631V75.961z M296.946,41.245h-20.929c0.978-1.685,2.021-3.349,3.136-4.991
			c6.222-9.181,13.013-15.334,17.793-18.976V41.245z M304.161,17.277c4.781,3.642,11.571,9.795,17.794,18.976
			c1.114,1.642,2.16,3.307,3.135,4.991h-20.929V17.277z M321.955,122.882c-6.223,9.181-13.013,15.334-17.794,18.976V117.89h20.929
			C324.115,119.576,323.069,121.239,321.955,122.882z M328.793,110.676h-24.632V83.175h31.182
			C334.904,92.767,332.713,101.966,328.793,110.676z M304.161,75.961v-27.5h24.632c3.92,8.71,6.111,17.908,6.55,27.5H304.161z"/>
	</g>
	<g>
		<polygon style="fill:#7D868C;" points="193.36,309.116 139.858,309.116 132.826,349.75 200.395,349.75 		"/>
		<path style="fill:#333E48;" d="M0,292.3V101.644C0,90.917,8.776,82.14,19.504,82.14h294.215c10.727,0,19.504,8.777,19.504,19.504
			V292.3H0z"/>
		<rect x="19.504" y="101.644" style="fill:#005CB9;" width="294.215" height="181.873"/>
		<g>
			<path style="fill:#FEE050;" d="M183.025,219.485c-38.9,0-71.381,27.449-79.158,64.032h158.319
				C254.407,246.935,221.929,219.485,183.025,219.485z"/>
			<circle style="fill:#FEE050;" cx="183.026" cy="184.623" r="63.751"/>
			<circle style="fill:#1E252B;" cx="142.555" cy="171.374" r="7.497"/>
			<circle style="fill:#1E252B;" cx="223.497" cy="171.374" r="7.497"/>
			<g>
				<path style="fill:#AF8400;" d="M218.257,184.623c0,19.457-15.772,35.231-35.231,35.231c-19.456,0-35.23-15.774-35.23-35.231
					H218.257z"/>
			</g>
			<path style="fill:#FEE050;" d="M85.936,183.935c-14.305,0-25.902,11.597-25.902,25.902c0,6.723,2.563,12.846,6.762,17.45
				c-5.061,17.793-8.647,38.713-9.411,56.231h24.41c0.763-14.782,3.854-32.813,8.048-48.072
				c12.452-1.883,21.997-12.631,21.997-25.608C111.839,195.531,100.241,183.935,85.936,183.935z"/>
		</g>
		<polygon style="opacity:0.1;fill:#FFFFFF;enable-background:new    ;" points="187.599,101.644 19.504,269.74 19.504,283.518 
			187.965,283.518 313.719,157.763 313.719,101.644 		"/>
		<path style="fill:#C3C6C8;" d="M0,279.617V292.3c0,10.728,8.776,19.504,19.504,19.504h294.215
			c10.727,0,19.504-8.776,19.504-19.504v-12.683L0,279.617L0,279.617z"/>
		<g>
			<g>
				<path style="fill:#1E252B;" d="M171.265,88.452c0-0.591-0.483-1.075-1.076-1.075h-7.154c-0.592,0-1.076,0.484-1.076,1.075v7.156
					c0,0.59,0.484,1.074,1.076,1.074h7.154c0.593,0,1.076-0.484,1.076-1.074V88.452z"/>
				<circle style="fill:#005CB9;" cx="166.611" cy="92.029" r="3.491"/>
				<circle style="fill:#1E252B;" cx="166.611" cy="92.029" r="1.838"/>
			</g>
			<circle style="fill:#1E252B;" cx="155.397" cy="92.029" r="1.106"/>
			<circle style="fill:#1E252B;" cx="177.825" cy="92.029" r="1.105"/>
		</g>
		<circle style="fill:#333E48;" cx="166.611" cy="294.735" r="7.642"/>
		<path style="fill:#C3C6C8;" d="M203.383,358.855c3.12,0,5.649-2.529,5.649-5.649c0-3.121-2.529-5.65-5.649-5.65H129.84
			c-3.122,0-5.651,2.529-5.651,5.65c0,3.12,2.529,5.649,5.651,5.649H203.383z"/>
	</g>
</g>
<g>
</g>
<g>
</g>
<g>
</g>
<g>
</g>
<g>
</g>
<g>
</g>
<g>
</g>
<g>
</g>
<g>
</g>
<g>
</g>
<g>
</g>
<g>
</g>
<g>
</g>
<g>
</g>
<g>
</g>
</svg>
