<?xml version="1.0" encoding="iso-8859-1"?>
<!-- Generator: Adobe Illustrator 19.0.0, SVG Export Plug-In . SVG Version: 6.00 Build 0)  -->
<svg version="1.1" id="Layer_1" xmlns="http://www.w3.org/2000/svg" xmlns:xlink="http://www.w3.org/1999/xlink" x="0px" y="0px"
	 viewBox="0 0 512 512" style="enable-background:new 0 0 512 512;" xml:space="preserve">
<path style="fill:#ECF1F1;" d="M370.759,97.103c0-24.373,19.765-44.138,44.138-44.138H17.655C7.901,52.966,0,60.866,0,70.621
	v423.724C0,504.099,7.901,512,17.655,512h335.448c9.754,0,17.655-7.901,17.655-17.655V97.103z"/>
<path style="fill:#F0C419;" d="M317.793,229.517c0,73.128-59.286,132.414-132.414,132.414S52.966,302.645,52.966,229.517
	S112.252,97.103,185.379,97.103S317.793,156.39,317.793,229.517"/>
<g>
	<path style="fill:#C59D1D;" d="M185.379,185.379c8.316,0,16.004,2.436,22.643,6.435l16.843-41.163
		c-11.891-5.967-25.273-9.41-39.486-9.41c-14.212,0-27.595,3.443-39.486,9.41l16.843,41.163
		C169.375,187.816,177.064,185.379,185.379,185.379"/>
	<path style="fill:#C59D1D;" d="M229.191,226.304c0.079,1.077,0.327,2.11,0.327,3.213c0,16.207-8.836,30.226-21.866,37.897
		l27.516,35.001c11.185-7.212,20.259-17.964,27.489-30.199c7.221-12.244,10.09-26.147,10.999-39.424L229.191,226.304z"/>
	<path style="fill:#C59D1D;" d="M141.241,229.517c0-1.103,0.247-2.127,0.327-3.213l-44.465,6.497
		c0.909,13.277,3.769,27.18,10.999,39.415c7.23,12.244,16.296,22.996,27.48,30.199l27.516-35.001
		C150.078,259.743,141.241,245.725,141.241,229.517"/>
	<path style="fill:#C59D1D;" d="M194.207,229.517c0,4.873-3.955,8.828-8.828,8.828c-4.873,0-8.828-3.955-8.828-8.828
		s3.955-8.828,8.828-8.828C190.252,220.69,194.207,224.644,194.207,229.517"/>
</g>
<g>
	<path style="fill:#CDCFCF;" d="M485.517,432.552c14.627,0,26.483-11.855,26.483-26.483V88.276V17.655
		C512,7.901,504.099,0,494.345,0H105.931c-9.754,0-17.655,7.901-17.655,17.655v35.31h326.621l0,0
		c24.373,0,44.138,19.756,44.138,44.138l0,0l0,0v308.966C459.034,420.696,470.89,432.552,485.517,432.552"/>
	<path style="fill:#CDCFCF;" d="M414.897,494.345c-4.882,0-8.828-3.955-8.828-8.828V97.103c0-4.873,3.946-8.828,8.828-8.828
		c4.882,0,8.828,3.955,8.828,8.828v388.414C423.724,490.39,419.778,494.345,414.897,494.345"/>
	<path style="fill:#CDCFCF;" d="M264.828,423.724H44.138c-4.882,0-8.828-3.955-8.828-8.828s3.946-8.828,8.828-8.828h220.69
		c4.882,0,8.828,3.955,8.828,8.828S269.709,423.724,264.828,423.724"/>
	<path style="fill:#CDCFCF;" d="M308.966,467.862H44.138c-4.882,0-8.828-3.955-8.828-8.828s3.946-8.828,8.828-8.828h264.828
		c4.882,0,8.828,3.955,8.828,8.828S313.847,467.862,308.966,467.862"/>
</g>
<g>
</g>
<g>
</g>
<g>
</g>
<g>
</g>
<g>
</g>
<g>
</g>
<g>
</g>
<g>
</g>
<g>
</g>
<g>
</g>
<g>
</g>
<g>
</g>
<g>
</g>
<g>
</g>
<g>
</g>
</svg>
